<svg width="29" height="54" viewBox="0 0 29 54" fill="none" xmlns="http://www.w3.org/2000/svg">
<path d="M19.2908 18.9544C20.0305 18.9544 20.63 18.3549 20.63 17.6152C20.63 16.8755 20.0305 16.276 19.2908 16.276H14.1082C13.6675 13.6204 11.3557 11.5887 8.57709 11.5887C5.48485 11.5887 2.96914 14.1045 2.96914 17.1967V38.717C1.25896 40.284 0.29071 42.4721 0.29071 44.8179C0.29071 49.3871 4.00795 53.1043 8.57709 53.1043C13.1462 53.1043 16.8635 49.3871 16.8635 44.8179C16.8635 42.4721 15.8952 40.284 14.185 38.717V35.6946H15.9428C16.6824 35.6946 17.282 35.095 17.282 34.3553C17.282 33.6157 16.6824 33.0161 15.9428 33.0161H14.185V27.3245H17.6168C18.3564 27.3245 18.956 26.7249 18.956 25.9853C18.956 25.2456 18.3564 24.6461 17.6168 24.6461H14.185V18.9544H19.2908Z" fill="black"/>
<path d="M12.0689 40.3935C13.4432 41.4644 14.2313 43.077 14.2313 44.8179C14.2313 47.9102 11.7156 50.4259 8.62334 50.4259C5.53109 50.4259 3.01538 47.9102 3.01538 44.8179C3.01538 43.077 3.80351 41.4644 5.17779 40.3935C5.50347 40.1398 5.69381 39.7501 5.69381 39.3372V17.1966C5.69381 15.5813 7.00799 14.2671 8.62334 14.2671C10.2387 14.2671 11.5529 15.5813 11.5529 17.1966V28.2669V39.3372C11.5529 39.75 11.7432 40.1398 12.0689 40.3935Z" fill="white"/>
<path d="M8.62308 47.8058C10.3307 47.8058 11.72 46.4165 11.72 44.7088C11.72 43.4805 11.0013 42.4171 9.9623 41.9168V25.1229C9.9623 24.3832 9.36275 23.7836 8.62308 23.7836C7.88342 23.7836 7.28387 24.3832 7.28387 25.1229V41.9168C6.24489 42.4171 5.52615 43.4805 5.52615 44.7088C5.52615 46.4165 6.91542 47.8058 8.62308 47.8058Z" fill="#0BA2E3"/>
<path d="M14.1684 5.38858C14.1684 5.04049 14.2543 4.72256 14.426 4.43479C14.5977 4.14239 14.8275 3.91032 15.1152 3.7386C15.403 3.56687 15.7186 3.481 16.0621 3.481C16.4009 3.481 16.7119 3.56687 16.995 3.7386C17.2781 3.91032 17.5032 4.14239 17.6703 4.43479C17.8374 4.72256 17.9209 5.04049 17.9209 5.38858C17.9209 5.73668 17.8374 6.05461 17.6703 6.34238C17.5032 6.6255 17.2781 6.8506 16.995 7.01769C16.7119 7.18477 16.4009 7.26832 16.0621 7.26832C15.7186 7.26832 15.403 7.18477 15.1152 7.01769C14.8275 6.8506 14.5977 6.6255 14.426 6.34238C14.2543 6.05461 14.1684 5.73668 14.1684 5.38858ZM15.1709 5.38858C15.1709 5.63922 15.2591 5.84808 15.4355 6.01516C15.6119 6.18225 15.8207 6.26579 16.0621 6.26579C16.3034 6.26579 16.5053 6.18225 16.6678 6.01516C16.8302 5.84808 16.9114 5.63922 16.9114 5.38858C16.9114 5.13331 16.8302 4.91981 16.6678 4.74808C16.5053 4.57635 16.3034 4.49049 16.0621 4.49049C15.8207 4.49049 15.6119 4.57635 15.4355 4.74808C15.2591 4.91981 15.1709 5.13331 15.1709 5.38858ZM25.6139 10.3942H27.6955C27.6538 11.0765 27.4658 11.6822 27.1316 12.2113C26.8021 12.7404 26.3403 13.1535 25.7462 13.4506C25.1567 13.7476 24.4466 13.8961 23.6158 13.8961C22.966 13.8961 22.3835 13.7847 21.8684 13.5619C21.3532 13.3345 20.9122 13.0096 20.5456 12.5873C20.1836 12.1649 19.9074 11.6544 19.7171 11.0556C19.5268 10.4569 19.4317 9.78623 19.4317 9.04362V8.34046C19.4317 7.59785 19.5291 6.92718 19.7241 6.32845C19.9236 5.72508 20.2068 5.21221 20.5734 4.78985C20.9447 4.36749 21.388 4.0426 21.9032 3.81518C22.4184 3.58775 22.9939 3.47404 23.6297 3.47404C24.4745 3.47404 25.1869 3.6272 25.7671 3.93353C26.3519 4.23986 26.8044 4.66222 27.1247 5.20061C27.4495 5.739 27.6445 6.35166 27.7095 7.03857H25.6209C25.5977 6.63014 25.5164 6.28436 25.3772 6.00124C25.238 5.71348 25.0268 5.49766 24.7437 5.35377C24.4652 5.20525 24.0939 5.13099 23.6297 5.13099C23.2816 5.13099 22.9776 5.19597 22.7177 5.32593C22.4578 5.45588 22.2397 5.65314 22.0633 5.91769C21.8869 6.18225 21.7546 6.51643 21.6665 6.92022C21.5829 7.31937 21.5411 7.78815 21.5411 8.32654V9.04362C21.5411 9.56809 21.5806 10.0299 21.6595 10.4291C21.7384 10.8236 21.8591 11.1577 22.0215 11.4316C22.1886 11.7008 22.4021 11.905 22.662 12.0442C22.9266 12.1788 23.2445 12.2461 23.6158 12.2461C24.0521 12.2461 24.4118 12.1765 24.6949 12.0373C24.978 11.898 25.1939 11.6915 25.3424 11.4177C25.4956 11.1438 25.5861 10.8027 25.6139 10.3942Z" fill="black"/>
</svg>
