<svg width="29" height="53" viewBox="0 0 29 53" fill="none" xmlns="http://www.w3.org/2000/svg">
<path d="M19.2908 18.4075C20.0305 18.4075 20.63 17.8079 20.63 17.0683C20.63 16.3286 20.0305 15.729 19.2908 15.729H14.1082C13.6675 13.0735 11.3557 11.0418 8.57709 11.0418C5.48485 11.0418 2.96914 13.5575 2.96914 16.6498V38.1701C1.25896 39.7371 0.29071 41.9252 0.29071 44.271C0.29071 48.8402 4.00795 52.5574 8.57709 52.5574C13.1462 52.5574 16.8635 48.8402 16.8635 44.271C16.8635 41.9251 15.8952 39.7371 14.185 38.1701V35.1476H15.9428C16.6824 35.1476 17.282 34.5481 17.282 33.8084C17.282 33.0687 16.6824 32.4692 15.9428 32.4692H14.185V26.7775H17.6168C18.3564 26.7775 18.956 26.178 18.956 25.4383C18.956 24.6987 18.3564 24.0991 17.6168 24.0991H14.185V18.4075H19.2908Z" fill="white"/>
<path d="M12.0689 39.8465C13.4432 40.9175 14.2313 42.5301 14.2313 44.271C14.2313 47.3632 11.7156 49.8789 8.62334 49.8789C5.53109 49.8789 3.01538 47.3632 3.01538 44.271C3.01538 42.5301 3.80351 40.9175 5.17779 39.8465C5.50347 39.5929 5.69381 39.2031 5.69381 38.7902V16.6497C5.69381 15.0344 7.00799 13.7202 8.62334 13.7202C10.2387 13.7202 11.5529 15.0344 11.5529 16.6497V27.72V38.7902C11.5529 39.2031 11.7432 39.5929 12.0689 39.8465Z" fill="black"/>
<path d="M8.62311 47.2588C10.3308 47.2588 11.72 45.8696 11.72 44.1619C11.72 42.9336 11.0013 41.8702 9.96233 41.3698V24.5759C9.96233 23.8363 9.36278 23.2367 8.62311 23.2367C7.88345 23.2367 7.2839 23.8363 7.2839 24.5759V41.3698C6.24492 41.8702 5.52618 42.9336 5.52618 44.1619C5.52618 45.8696 6.91545 47.2588 8.62311 47.2588Z" fill="#0BA2E3"/>
<path d="M14.1684 4.84165C14.1684 4.49355 14.2543 4.17562 14.426 3.88786C14.5978 3.59545 14.8275 3.36339 15.1153 3.19166C15.403 3.01993 15.7186 2.93407 16.0621 2.93407C16.4009 2.93407 16.7119 3.01993 16.995 3.19166C17.2781 3.36339 17.5032 3.59545 17.6703 3.88786C17.8374 4.17562 17.921 4.49355 17.921 4.84165C17.921 5.18975 17.8374 5.50768 17.6703 5.79544C17.5032 6.07856 17.2781 6.30366 16.995 6.47075C16.7119 6.63784 16.4009 6.72138 16.0621 6.72138C15.7186 6.72138 15.403 6.63784 15.1153 6.47075C14.8275 6.30366 14.5978 6.07856 14.426 5.79544C14.2543 5.50768 14.1684 5.18975 14.1684 4.84165ZM15.171 4.84165C15.171 5.09228 15.2592 5.30114 15.4355 5.46823C15.6119 5.63531 15.8208 5.71886 16.0621 5.71886C16.3035 5.71886 16.5053 5.63531 16.6678 5.46823C16.8302 5.30114 16.9115 5.09228 16.9115 4.84165C16.9115 4.58638 16.8302 4.37288 16.6678 4.20115C16.5053 4.02942 16.3035 3.94355 16.0621 3.94355C15.8208 3.94355 15.6119 4.02942 15.4355 4.20115C15.2592 4.37288 15.171 4.58638 15.171 4.84165ZM25.6139 9.84731H27.6956C27.6538 10.5296 27.4658 11.1353 27.1316 11.6644C26.8021 12.1935 26.3403 12.6066 25.7462 12.9036C25.1568 13.2007 24.4466 13.3492 23.6158 13.3492C22.9661 13.3492 22.3836 13.2378 21.8684 13.015C21.3532 12.7876 20.9123 12.4627 20.5456 12.0403C20.1836 11.618 19.9074 11.1074 19.7171 10.5087C19.5268 9.90997 19.4317 9.2393 19.4317 8.49669V7.79353C19.4317 7.05092 19.5292 6.38025 19.7241 5.78152C19.9237 5.17814 20.2068 4.66528 20.5735 4.24292C20.9448 3.82056 21.388 3.49567 21.9032 3.26824C22.4184 3.04082 22.9939 2.9271 23.6298 2.9271C24.4745 2.9271 25.1869 3.08027 25.7671 3.3866C26.3519 3.69292 26.8044 4.11528 27.1247 4.65368C27.4496 5.19207 27.6445 5.80472 27.7095 6.49164H25.6209C25.5977 6.0832 25.5165 5.73742 25.3772 5.4543C25.238 5.16654 25.0268 4.95072 24.7437 4.80684C24.4652 4.65832 24.0939 4.58406 23.6298 4.58406C23.2817 4.58406 22.9777 4.64903 22.7178 4.77899C22.4578 4.90895 22.2397 5.1062 22.0633 5.37076C21.887 5.63531 21.7547 5.96949 21.6665 6.37328C21.583 6.77244 21.5412 7.24121 21.5412 7.7796V8.49669C21.5412 9.02116 21.5806 9.48297 21.6595 9.88212C21.7384 10.2766 21.8591 10.6108 22.0216 10.8846C22.1886 11.1538 22.4021 11.3581 22.6621 11.4973C22.9266 11.6319 23.2445 11.6992 23.6158 11.6992C24.0521 11.6992 24.4118 11.6296 24.695 11.4903C24.9781 11.3511 25.1939 11.1446 25.3424 10.8707C25.4956 10.5969 25.5861 10.2557 25.6139 9.84731Z" fill="white"/>
</svg>
